<?xml version="1.0" encoding="UTF-8" standalone="no" ?>
<!DOCTYPE svg PUBLIC "-//W3C//DTD SVG 1.1//EN" "http://www.w3.org/Graphics/SVG/1.1/DTD/svg11.dtd">
<svg xmlns="http://www.w3.org/2000/svg" xmlns:xlink="http://www.w3.org/1999/xlink" version="1.1" width="800" height="400" viewBox="0 0 800 400" xml:space="preserve">
<desc>Created with Fabric.js 5.2.4</desc>
<defs>
</defs>
<rect x="0" y="0" width="100%" height="100%" fill="transparent"></rect>
<g transform="matrix(Infinity NaN NaN Infinity 0 0)" id="46832fb7-1aed-4627-8376-f73889f3c924"  >
</g>
<g transform="matrix(1 0 0 1 400 200)" id="1e3cc274-9fc9-4b03-8180-c4168576c728"  >
<rect style="stroke: none; stroke-width: 1; stroke-dasharray: none; stroke-linecap: butt; stroke-dashoffset: 0; stroke-linejoin: miter; stroke-miterlimit: 4; fill: rgb(255,255,255); fill-rule: nonzero; opacity: 1; visibility: hidden;" vector-effect="non-scaling-stroke"  x="-400" y="-200" rx="0" ry="0" width="800" height="400" />
</g>
<g transform="matrix(0.37 0 0 0.37 800 400)"  >
<rect style="stroke: none; stroke-width: 1; stroke-dasharray: none; stroke-linecap: butt; stroke-dashoffset: 0; stroke-linejoin: miter; stroke-miterlimit: 4; fill: rgb(255,255,255); fill-rule: nonzero; opacity: 1; visibility: hidden;" vector-effect="non-scaling-stroke"  x="-540" y="-540" rx="0" ry="0" width="1080" height="1080" />
</g>
<g transform="matrix(1.31 0 0 1.31 400 200)"  >
<path style="stroke: none; stroke-width: 1; stroke-dasharray: none; stroke-linecap: butt; stroke-dashoffset: 0; stroke-linejoin: miter; stroke-miterlimit: 4; fill: rgb(29,99,237); fill-rule: nonzero; opacity: 1;" vector-effect="non-scaling-stroke"  transform=" translate(-330, -220.5)" d="M 242.62 203.58 C 241.72 196.96 238.08 191.21 231.46 186.02 L 227.66 183.45000000000002 L 225.10999999999999 187.31000000000003 C 221.71722538967543 192.84103948454967 220.1922188737689 199.3161820934679 220.76 205.78000000000003 C 221.09905617238752 209.36596391441506 222.24425649297513 212.82891294353516 224.10999999999999 215.91000000000003 C 220.04154699727397 217.9933808750019 215.50799152095237 219.00198509258902 210.94 218.84000000000003 L 92.75 218.84000000000003 L 92.52 220.21000000000004 C 91.41 226.85000000000002 91.42999999999999 247.57000000000005 104.71 263.49 C 114.80999999999999 275.59000000000003 129.94 281.73 149.70999999999998 281.73 C 192.51999999999998 281.73 224.2 261.73 239.02999999999997 225.47000000000003 C 244.86999999999998 225.59000000000003 257.42999999999995 225.47000000000003 263.89 213.03000000000003 C 264.05 212.75000000000003 264.44 211.98000000000002 265.57 209.62000000000003 L 266.19 208.33000000000004 L 262.56 205.88000000000005 C 258.64 203.21000000000006 249.62 202.24000000000007 242.68 203.58000000000004 Z M 187.25 159.27 L 169.25 159.27 L 169.25 175.82000000000002 L 187.25 175.82000000000002 Z M 187.25 179.13 L 169.25 179.13 L 169.25 195.68 L 187.25 195.68 Z M 166.01 179.13 L 148 179.13 L 148 195.68 L 166 195.68 Z M 144.76999999999998 179.13 L 126.76999999999998 179.13 L 126.76999999999998 195.68 L 144.76999999999998 195.68 Z M 123.53 199 L 105.53 199 L 105.53 215.55 L 123.53 215.55 Z M 144.77 199 L 126.77000000000001 199 L 126.77000000000001 215.55 L 144.77 215.55 Z M 166 199 L 148 199 L 148 215.55 L 166 215.55 Z M 187.24 199 L 169.24 199 L 169.24 215.55 L 187.24 215.55 Z M 208.48000000000002 199 L 190.48000000000002 199 L 190.48000000000002 215.55 L 208.48000000000002 215.55 Z M 317.70000000000005 195.3 C 316.47619550991413 195.26274714323242 315.29312325536193 195.7417825346462 314.44000000000005 196.62 C 313.56896104223387 197.5092340280272 313.0993013904183 198.71589805653798 313.14000000000004 199.96 L 313.14000000000004 222.35000000000002 C 303.3979457674136 214.33274051091834 289.1339467947077 215.13316009340627 280.35 224.19000000000003 C 270.76514229812483 234.1018249543208 270.76514229812483 249.82817504567925 280.35 259.74 C 284.90730363550676 264.4503422762299 291.1808913050331 267.109837248112 297.735 267.109837248112 C 304.28910869496696 267.109837248112 310.56269636449326 264.4503422762299 315.12 259.74 C 319.8475182672443 255.06178177658055 322.4499489244639 248.64968179615332 322.32 242 L 322.32 200 C 322.3528609335735 198.76302033426353 321.8793875183643 197.56622429488684 321.00913432779635 196.6865323495405 C 320.1388811372284 195.8068404041942 318.94726217081694 195.32048449165066 317.71 195.34 Z M 312 248.05 C 311.22760729644244 249.90877724359964 310.11141439947033 251.605119032311 308.71 253.05 C 307.31618432767084 254.48806459965903 305.65962676751684 255.6456181406683 303.83 256.46000000000004 C 301.9435347936956 257.30552279565626 299.89722695611715 257.7352474415477 297.83 257.72 C 295.7431331226849 257.7382434971117 293.6766370802337 257.3085760031367 291.77 256.46000000000004 C 289.9441185293729 255.65306998781028 288.29068803722373 254.50211939881945 286.9 253.07000000000005 C 285.5108126139657 251.62139146047076 284.40510013589505 249.9255134266201 283.64 248.07000000000005 C 282.0259848879214 244.16001503575055 282.0259848879214 239.76998496424957 283.64 235.86000000000004 C 284.40341494568736 234.00360022332262 285.5093217686769 232.30742411444297 286.9 230.86000000000004 C 288.2943610180121 229.43221151799725 289.9469047304708 228.28187821507427 291.77 227.47000000000006 C 293.6756709368703 226.61843103539445 295.7428261706717 226.18862648183176 297.83 226.21000000000006 C 299.89763570166576 226.1906503529804 301.9448107312766 226.62055710919867 303.83 227.47000000000006 C 305.6624771988984 228.27932897039418 307.3199490738519 229.43752140760552 308.71 230.88000000000005 C 310.1031984128261 232.33145390579227 311.21831973112563 234.0261671554876 312 235.88000000000005 C 313.5893542229536 239.76368521992453 313.5893542229536 244.11631478007553 312 248 Z M 518.58 224.2 C 514.0226963644933 219.4896577237701 507.749108694967 216.830162751888 501.19500000000005 216.830162751888 C 494.6408913050331 216.830162751888 488.3673036355068 219.48965772377014 483.81000000000006 224.2 C 474.22514229812487 234.11182495432075 474.22514229812487 249.83817504567924 483.81000000000006 259.75 C 492.8262616012983 269.04792450455784 507.5647499363585 269.598854840049 517.25 261 C 518.9736176750691 259.0953964357712 518.9736176750691 256.19460356422877 517.25 254.29 C 516.3880637937816 253.43456049176422 515.2139690031547 252.96853517486923 514 253 C 512.8916982041774 253.01582314858035 511.8263789155201 253.43129767115664 511 254.17 C 509.6863289507213 255.33908881471024 508.1673384191631 256.2545518582832 506.52 256.87 C 504.817389580453 257.48153434873376 503.01895799996646 257.78296638388116 501.21 257.76 C 499.54573169227496 257.7708811795157 497.89187035422077 257.49692868793613 496.32 256.95 C 494.7817227904972 256.42307184754947 493.3345105770613 255.6606710078373 492.03 254.69 C 490.7161633612341 253.7094542565572 489.5682296797487 252.52438154420014 488.63 251.18 C 487.65375792316695 249.8055815627291 486.91360216248324 248.27795414798464 486.44 246.66 L 521.19 246.66 C 522.427262170817 246.6795155083493 523.6188811372284 246.19315959580575 524.4891343277964 245.31346765045944 C 525.3593875183642 244.43377570511313 525.8328609335734 243.23697966573647 525.8 242 C 525.8268898351943 238.6941993473464 525.2157206991176 235.41425831706755 524 232.34 C 522.7631441264687 229.3066893701345 520.9303136655496 226.55234303739908 518.61 224.24 Z M 486.41 237.31 C 486.8695214540429 235.69395307793496 487.59622260161933 234.16619066535569 488.56 232.79 C 489.5108855789478 231.44956267047579 490.66470891901156 230.26537555830512 491.98 229.28 C 493.30159442567043 228.3050836660989 494.7654075275747 227.5394487026605 496.32 227.01 C 497.88745445376935 226.4728783759304 499.5330713901276 226.19917206824042 501.19 226.2 C 502.8266279646238 226.19778254859358 504.45219860073985 226.46814772715757 506 227 C 509.11664506279186 228.06780717404033 511.81777926572215 230.09015894773685 513.72 232.78 C 514.7055262499405 234.15313746150804 515.4557659999316 235.6806526281566 515.94 237.3 Z M 566.71 220 C 565.8256901390348 219.15323258821533 564.7727940888225 218.50241334682192 563.62 218.09 C 562.301791688672 217.61500110499242 560.932448031889 217.29615883196695 559.54 217.14000000000001 C 558.1638760934512 216.96122084943394 556.7776879762345 216.87103511650656 555.39 216.87 C 552.5758177052414 216.85042316471893 549.7811455502133 217.33822048632385 547.14 218.31 C 544.540824664594 219.2756056408728 542.1209441545127 220.66805085058442 539.98 222.43 L 539.98 221.54000000000002 C 540.004997386825 220.30274357403812 539.5204969466125 219.1095708481418 538.64 218.24 C 537.8050535855269 217.3537435342581 536.6375455909161 216.8570087663647 535.42 216.87 C 534.1877539189278 216.85639495130076 533.0045548008239 217.35210834328922 532.15 218.24 C 531.2714961613323 219.11090017404726 530.7873582510007 220.30318010247586 530.81 221.54000000000002 L 530.81 262.46000000000004 C 530.7838155373397 263.69747553029526 531.2684992773579 264.89109966616087 532.15 265.76000000000005 C 533.0010667052069 266.65296990565804 534.1865805475172 267.14965307506634 535.42 267.13000000000005 C 536.6395131993712 267.153019458128 537.8109145339608 266.6546282070759 538.64 265.76000000000005 C 539.5185038386677 264.88909982595277 540.0026417489993 263.69681989752416 539.98 262.46000000000004 L 539.98 242 C 539.9693955546287 239.88984240076203 540.3807918675568 237.79886114083868 541.19 235.85 C 541.9522399531371 233.98823762333853 543.0658463063812 232.29066696290545 544.47 230.85 C 545.8668027725469 229.42362718860988 547.5276198968515 228.28245223203243 549.36 227.48999999999998 C 551.2504337601081 226.65897764399065 553.2950172341394 226.2364303926908 555.36 226.24999999999997 C 557.4132068558876 226.23635432726712 559.4499838330399 226.61655269633556 561.36 227.36999999999998 C 561.9620698558457 227.66770738924907 562.6191132347155 227.83792588118428 563.29 227.86999999999998 C 563.9083076960243 227.87438061303493 564.5209392856062 227.75185429511853 565.0899999999999 227.50999999999996 C 565.633112966174 227.27295919046736 566.1254309773242 226.93342952760523 566.54 226.50999999999996 C 566.965002189485 226.07377072451843 567.3042245330341 225.5615449857591 567.54 224.99999999999997 C 567.7950091212059 224.42032805514032 567.9245105710937 223.79326840305197 567.92 223.15999999999997 C 567.96542465095 221.98767129810514 567.5196049029677 220.84956234797158 566.6899999999999 220.01999999999998 Z M 369.49 224.2 C 364.93269636449327 219.4896577237701 358.65910869496696 216.830162751888 352.105 216.830162751888 C 345.5508913050331 216.830162751888 339.27730363550677 219.48965772377014 334.72 224.2 C 325.13514229812483 234.11182495432075 325.13514229812483 249.83817504567924 334.72 259.75 C 339.2801022937126 264.4551924107944 345.55264404571 267.11108683030267 352.105 267.11108683030267 C 358.65735595429004 267.11108683030267 364.9298977062874 264.4551924107944 369.49 259.75 C 374.2143973265705 255.0663563195726 376.81297816290555 248.65122282236166 376.68 242 C 376.6796031078924 238.69805904211537 376.0623482490963 235.42525168641112 374.86 232.35 C 373.6296610550064 229.3033246884497 371.8040551929191 226.53261932978833 369.49 224.2 Z M 366.3 248.04999999999998 C 365.53381497052965 249.9096826732035 364.420674833476 251.60654263822417 363.02000000000004 253.04999999999998 C 361.62452754948515 254.49063874466458 359.96417644213994 255.64847049845744 358.13000000000005 256.46 C 356.2446126054744 257.3088350488457 354.1975725801574 257.7387134541623 352.13000000000005 257.71999999999997 C 350.043133122685 257.7382434971116 347.9766370802338 257.30857600313664 346.07000000000005 256.46 C 344.24275823670564 255.6554917919095 342.58888919956775 254.5042359323823 341.20000000000005 253.07 C 339.8076060871839 251.6219378283909 338.69851458025454 249.9260792551044 337.93000000000006 248.07 C 336.3159848879215 244.1600150357505 336.3159848879215 239.76998496424952 337.93000000000006 235.85999999999999 C 338.6964083394319 234.00280923970303 339.8057435201784 232.30657807648203 341.20000000000005 230.85999999999999 C 342.5926190279735 229.43015593760435 344.2455818611212 228.27953088537222 346.07000000000005 227.47 C 347.97567093687036 226.6184310353944 350.0428261706718 226.1886264818317 352.13000000000005 226.21 C 354.19769890948373 226.1900122906743 356.2450095300655 226.61994752099648 358.13000000000005 227.47 C 359.96554419524244 228.27909801208972 361.6263364365438 229.43723738690312 363.02000000000004 230.88 C 364.41340020136596 232.32927200723256 365.5255840996953 234.02467429127125 366.3 235.88 C 367.91335157319594 239.76586127341704 367.91335157319594 244.13413872658293 366.3 248.01999999999998 Z M 471.65 221.5 C 471.6490176358077 220.8844481048259 471.5231448467216 220.27549596303115 471.28 219.71 C 471.0354721958144 219.15617790851542 470.69717123668363 218.64872646981922 470.28 218.21 C 469.8688904304109 217.77791661746977 469.37144177606825 217.4371983610707 468.82 217.21 C 468.2536091456734 216.96971020102677 467.6452415133524 216.84395823233473 467.03 216.84 C 466.1561281149994 216.82623309098437 465.2985449034381 217.07723305534378 464.57 217.56 L 438.36 235 L 438.36 200 C 438.3881802151691 198.74744531131347 437.9042371824925 197.53758772962192 437.02000000000004 196.65 C 436.18434090423074 195.7647665291052 435.01730272665725 195.26823165231153 433.8 195.28 C 432.5677539189278 195.26639495130075 431.384554800824 195.7621083432892 430.53000000000003 196.65 C 429.6417649017523 197.53495157458914 429.15710670443383 198.74659706788532 429.19000000000005 200 L 429.19000000000005 262.39 C 429.1684343759439 263.635450716984 429.65178849061334 264.83662176314016 430.53000000000003 265.71999999999997 C 431.37613849139484 266.6224089536689 432.56306622339525 267.1269439834795 433.8 267.10999999999996 C 435.0226095043697 267.127894219623 436.1944954542225 266.62201798661204 437.02000000000004 265.71999999999997 C 437.89435541248054 264.8340864745599 438.3770282500965 263.6346084527233 438.36 262.39 L 438.36 246.19 L 443.71000000000004 242.6 L 464 265.87 C 464.8153955741704 266.6752830683832 465.92444291348136 267.1123994464178 467.07 267.08 C 467.68947243725233 267.08594590729166 468.3030998929417 266.9598113747333 468.87 266.71 C 469.41743767309737 266.48080302716096 469.91122602552036 266.14025933583474 470.32 265.71 C 470.7424731230053 265.27173673293896 471.0813648298024 264.7600102556754 471.32 264.2 C 471.5698611530325 263.63628172666216 471.69928858619824 263.0266103967499 471.7 262.40999999999997 C 471.70366874948195 261.19707839585766 471.24609522311357 260.02812102771344 470.42 259.14 L 451.55 237.41 L 469.93 225.19 C 471.12337117630045 224.34105273772624 471.7868792255969 222.9306241986502 471.68 221.47 Z M 395.46999999999997 230.82 C 396.87417836580363 229.3932531102419 398.54159639301423 228.25220940934014 400.38 227.45999999999998 C 402.27080019003256 226.63012616384952 404.3151360995136 226.2076300758901 406.38 226.21999999999997 C 408.2143336111691 226.20572457441293 410.0342150334353 226.54525469050736 411.74 227.21999999999997 C 413.4493900352509 227.9319834764654 415.03299016636646 228.91455839790387 416.43 230.12999999999997 C 417.2710306453802 230.83307081274862 418.3338207693715 231.2156752573855 419.43 231.20999999999998 C 420.65752060623083 231.2458318154383 421.8425205591869 230.7587459452048 422.69 229.86999999999998 C 423.5673783450348 228.91694746067222 424.02981936267304 227.65415390390987 423.9754223770894 226.35988079864404 C 423.92102539150574 225.0656076933782 423.354254546174 223.8460708670885 422.4 222.96999999999997 C 418.04550775604395 218.96016581482826 412.3188559807703 216.77330066814565 406.4 216.85999999999996 C 399.82634195323806 216.76370881474026 393.5139150856354 219.43016499157244 389 224.21 C 379.4151422981248 234.12182495432077 379.4151422981248 249.84817504567923 389 259.76 C 393.50949006219815 264.54255912406364 399.81725283459565 267.2158317883862 406.39 267.13 C 412.3075906746053 267.20955836480175 418.03169119441924 265.0236674787978 422.39 261.02 C 423.32268901779895 260.11112159862176 423.8460476553478 258.8622796083328 423.84 257.56 C 423.879865022995 256.31794362659906 423.41440611298447 255.1128019526184 422.54999999999995 254.22 C 421.69239368162266 253.3423131525429 420.50658081183104 252.86363639776465 419.28 252.9 C 418.23365787014336 252.91079416852864 417.21924714951876 253.26180133829493 416.39 253.9 C 415.02312050275617 255.13076436987535 413.44872310720956 256.1092608157097 411.74 256.79 C 410.0333881977128 257.4618715837324 408.2140686053736 257.8012968808106 406.38 257.79 C 404.31513609951367 257.8023699241099 402.27080019003256 257.37987383615047 400.38 256.55 C 398.54556215254024 255.7506086601671 396.8794367341301 254.61044951437117 395.46999999999997 253.19 C 394.0461239960843 251.75720151593242 392.91803712242137 250.05827550137977 392.15 248.19 C 390.5372015843964 244.24168065857927 390.5372015843964 239.81831934142073 392.15 235.87 C 392.9214708111465 234.0035496978086 394.04913854649124 232.30525491566289 395.46999999999997 230.87 Z" stroke-linecap="round" />
</g>
</svg>